# xmcd
#
# Track frame offsets:
# 150
# 18996
# 34617
# 54217
# 71187
# 87165
# 100764
# 121470
# 147215
# 164350
# 176454
# 189702
# 198679
# 205742
# 226570
# 230952
#
# Disc length: 3450 seconds
#
# Revision: 1
# Processed by: cddbd v1.4PL0 Copyright (c) Steve Scherf et al.
# Submitted via: CedeCatalogueitor 2.5 http://usuarios.lycos.es/kakasboy
#
DISCID=d80d7810
DTITLE=Miguel Botafogo Vilanova - Botafogo Y Amigos
DYEAR=1997
DGENRE=
TTITLE0=Estoy Bien
TTITLE1=Otra Vez
TTITLE2=Rocknrol Blues
TTITLE3=Hideaway
TTITLE4=Completamente Nervioso
TTITLE5=Two Bones And A Pick
TTITLE6=La Ciudad De Las Gemas
TTITLE7=Desde El Mirador
TTITLE8=Todo El Dia Me Pregunto
TTITLE9=The Sad Nite Owl
TTITLE10=The Trill Is Gone
TTITLE11=Trabajando En El Ferrocarril
TTITLE12=Jigsaw Puzzle Blues
TTITLE13=Born Under A Bad Sign
TTITLE14=56" Blues
TTITLE15=Lilam (siesta)
EXTD=
EXTT0=
EXTT1=
EXTT2=
EXTT3=
EXTT4=
EXTT5=
EXTT6=
EXTT7=
EXTT8=
EXTT9=
EXTT10=
EXTT11=
EXTT12=
EXTT13=
EXTT14=
EXTT15=
PLAYORDER=
